<?xml version="1.0" encoding="UTF-8" standalone="no"?>
<!-- Created with Inkscape (http://www.inkscape.org/) -->

<svg
   xmlns:dc="http://purl.org/dc/elements/1.1/"
   xmlns:cc="http://creativecommons.org/ns#"
   xmlns:rdf="http://www.w3.org/1999/02/22-rdf-syntax-ns#"
   xmlns:svg="http://www.w3.org/2000/svg"
   xmlns="http://www.w3.org/2000/svg"
   xmlns:sodipodi="http://sodipodi.sourceforge.net/DTD/sodipodi-0.dtd"
   xmlns:inkscape="http://www.inkscape.org/namespaces/inkscape"
   width="106.73292mm"
   height="41.010418mm"
   viewBox="0 0 106.73292 41.010418"
   version="1.1"
   id="svg19602"
   inkscape:version="0.92.4 (5da689c313, 2019-01-14)"
   sodipodi:docname="drawing.svg">
  <defs
     id="defs19596" />
  <sodipodi:namedview
     id="base"
     pagecolor="#ffffff"
     bordercolor="#666666"
     borderopacity="1.0"
     inkscape:pageopacity="0.0"
     inkscape:pageshadow="2"
     inkscape:zoom="0.35"
     inkscape:cx="201.7"
     inkscape:cy="77.50001"
     inkscape:document-units="mm"
     inkscape:current-layer="layer1"
     showgrid="false"
     inkscape:window-width="2736"
     inkscape:window-height="1699"
     inkscape:window-x="-13"
     inkscape:window-y="-13"
     inkscape:window-maximized="1" />
  <metadata
     id="metadata19599">
    <rdf:RDF>
      <cc:Work
         rdf:about="">
        <dc:format>image/svg+xml</dc:format>
        <dc:type
           rdf:resource="http://purl.org/dc/dcmitype/StillImage" />
        <dc:title></dc:title>
      </cc:Work>
    </rdf:RDF>
  </metadata>
  <g
     inkscape:label="Layer 1"
     inkscape:groupmode="layer"
     id="layer1"
     transform="translate(-52.466875,-128.32813)">
    <g
       transform="matrix(0.26458333,0,0,0.26458333,37.729584,104.64792)"
       id="g19023">
      <g
         id="g18937">
        <g
           id="g18931">
          <path
             style="fill:#f7e442"
             inkscape:connector-curvature="0"
             d="m 160.2,211 c -6,0 -11.1,-4 -12.6,-9.5 l -77.8,-9.9 c -7.1,-0.9 -12.5,-7 -12.5,-14.2 v -20.6 c 0,-7.2 5.4,-13.3 12.5,-14.2 l 77.6,-9.9 c 1.4,-5.8 6.6,-10.1 12.8,-10.1 h 188.5 c 5.9,0 10.9,3.9 12.6,9.3 l 83.7,10.7 c 7.1,0.9 12.5,7 12.5,14.2 v 20.6 c 0,7.2 -5.4,13.3 -12.5,14.2 l -83.9,10.7 c -1.8,5.1 -6.7,8.8 -12.4,8.8 H 160.2 Z"
             id="path18929" />
        </g>
        <g
           id="g18935">
          <path
             style="fill:#2f2c30"
             inkscape:connector-curvature="0"
             d="M 348.7,212.6 H 160.2 c -6.2,0 -11.8,-3.9 -13.9,-9.7 l -76.7,-9.8 c -7.9,-1 -13.9,-7.8 -13.9,-15.8 v -20.6 c 0,-8 6,-14.8 13.9,-15.8 l 76.5,-9.8 c 2,-6.1 7.6,-10.2 14.1,-10.2 h 188.5 c 6.1,0 11.6,3.8 13.8,9.5 l 82.7,10.6 c 7.9,1 13.9,7.8 13.9,15.8 v 20.6 c 0,8 -6,14.8 -13.9,15.8 l -83,10.6 c -2.3,5.3 -7.6,8.8 -13.5,8.8 z M 160.2,124.2 c -5.3,0 -9.9,3.6 -11.2,8.8 l -0.3,1.1 -78.8,10 c -6.3,0.8 -11,6.2 -11,12.5 v 20.6 c 0,6.3 4.7,11.7 11,12.5 l 78.8,10.1 0.3,1 c 1.4,4.9 6,8.3 11.1,8.3 h 188.5 c 4.9,0 9.2,-3.1 10.8,-7.7 l 0.3,-1 84.9,-10.8 c 6.3,-0.8 11,-6.2 11,-12.5 v -20.6 c 0,-6.3 -4.7,-11.7 -11,-12.5 l -84.6,-10.7 -0.3,-1 c -1.5,-4.8 -6,-8.1 -11,-8.1 H 160.2 Z"
             id="path18933" />
        </g>
      </g>
      <g
         id="g18945">
        <path
           style="fill:#087d9d"
           inkscape:connector-curvature="0"
           d="m 444.2,149.1 -88.9,-11.3 v -2 c 0,-3.6 -2.9,-6.6 -6.6,-6.6 H 160.2 c -3.6,0 -6.6,2.9 -6.6,6.6 v 2.8 l -83,10.6 c -3.8,0.5 -6.7,3.8 -6.7,7.6 v 10.2 10.3 c 0,3.9 2.9,7.2 6.7,7.6 l 83,10.6 v 2.2 c 0,3.6 2.9,6.6 6.6,6.6 h 188.4 c 3.6,0 6.6,-2.9 6.6,-6.6 v -1.5 l 88.9,-11.3 c 3.8,-0.5 6.7,-3.8 6.7,-7.6 V 167 156.7 c 0.1,-3.9 -2.8,-7.2 -6.6,-7.6 z"
           id="path18939" />
        <path
           style="fill:#1294b2"
           inkscape:connector-curvature="0"
           d="m 444.2,149.1 -88.9,-11.3 v -2 c 0,-3.6 -2.9,-6.6 -6.6,-6.6 H 160.2 c -3.6,0 -6.6,2.9 -6.6,6.6 v 2.8 l -83,10.6 c -3.8,0.5 -6.7,3.8 -6.7,7.6 v 10.2 0 h 387 v 0 -10.3 c 0,-3.9 -2.9,-7.2 -6.7,-7.6 z"
           id="path18941" />
        <path
           style="fill:#2f2c30"
           inkscape:connector-curvature="0"
           d="M 348.7,206.5 H 160.2 c -4.8,0 -8.6,-3.9 -8.6,-8.6 v -0.4 L 70.4,187 c -4.9,-0.6 -8.5,-4.8 -8.5,-9.7 v -20.6 c 0,-4.9 3.7,-9.1 8.5,-9.7 l 81.2,-10.4 v -1 c 0,-4.8 3.9,-8.6 8.6,-8.6 h 188.4 c 4.8,0 8.6,3.9 8.6,8.6 v 0.2 l 87.1,11.1 c 4.9,0.6 8.5,4.8 8.5,9.7 v 20.6 c 0,4.9 -3.7,9.1 -8.5,9.7 L 357.2,198 c -0.1,4.8 -3.9,8.5 -8.5,8.5 z M 160.2,131.2 c -2.5,0 -4.5,2 -4.5,4.5 v 2.8 c 0,1 -0.8,1.9 -1.8,2.1 l -83,10.6 c -2.8,0.4 -4.9,2.8 -4.9,5.6 v 20.6 c 0,2.8 2.1,5.2 4.9,5.6 l 83,10.6 c 1,0.1 1.8,1 1.8,2.1 v 2.2 c 0,2.5 2,4.5 4.5,4.5 h 188.4 c 2.5,0 4.5,-2 4.5,-4.5 v -1.5 c 0,-1 0.8,-1.9 1.8,-2.1 L 443.8,183 c 2.8,-0.4 4.9,-2.8 4.9,-5.6 v -20.6 c 0,-2.8 -2.1,-5.2 -4.9,-5.6 L 355,139.8 c -1,-0.1 -1.8,-1 -1.8,-2.1 v -2 c 0,-2.5 -2,-4.5 -4.5,-4.5 H 160.2 Z"
           id="path18943" />
      </g>
      <g
         id="g18955">
        <g
           id="g18949">
          <path
             style="fill:#f7e442"
             inkscape:connector-curvature="0"
             d="M 199.3,121.5 247,94 c 6.4,-3.7 14.4,-3.7 20.8,0 l 47.6,27.5 c 6.4,3.7 10.4,10.6 10.4,18 v 55 c 0,7.4 -4,14.3 -10.4,18 L 267.8,240 c -6.4,3.7 -14.4,3.7 -20.8,0 L 199.4,212.5 C 193,208.8 189,201.9 189,194.5 v -55 c -0.1,-7.4 3.9,-14.3 10.3,-18 z"
             id="path18947" />
        </g>
        <g
           id="g18953">
          <path
             style="fill:#2f2c30"
             inkscape:connector-curvature="0"
             d="m 257.4,244.5 c -3.9,0 -7.8,-1 -11.2,-3 L 198.5,214 c -6.9,-4 -11.2,-11.5 -11.2,-19.5 v -55 c 0,-8 4.3,-15.5 11.2,-19.5 l 47.6,-27.5 c 3.4,-2 7.3,-3 11.2,-3 3.9,0 7.8,1 11.2,3 l 47.6,27.5 c 6.9,4 11.2,11.5 11.2,19.5 v 55 c 0,8 -4.3,15.5 -11.2,19.5 l -47.6,27.5 c -3.3,2 -7.2,3 -11.1,3 z m 0,-151.7 c -3.4,0 -6.7,0.9 -9.6,2.6 l -47.6,27.5 c -5.9,3.4 -9.6,9.8 -9.6,16.6 v 55 c 0,6.8 3.7,13.2 9.6,16.6 l 47.6,27.5 c 2.9,1.7 6.2,2.6 9.6,2.6 3.4,0 6.7,-0.9 9.6,-2.6 l 47.6,-27.5 c 5.9,-3.4 9.6,-9.8 9.6,-16.6 v -55 c 0,-6.8 -3.7,-13.2 -9.6,-16.6 L 267,95.4 c -2.9,-1.7 -6.2,-2.6 -9.6,-2.6 z"
             id="path18951" />
        </g>
      </g>
      <g
         id="g18961">
        <path
           style="fill:#087d9d"
           inkscape:connector-curvature="0"
           d="m 205.2,126.1 42.9,-24.7 c 5.8,-3.3 12.9,-3.3 18.7,0 l 42.9,24.7 c 5.8,3.3 9.4,9.5 9.4,16.2 v 49.5 c 0,6.7 -3.6,12.9 -9.4,16.2 l -42.9,24.7 c -5.8,3.3 -12.9,3.3 -18.7,0 L 205.2,208 c -5.8,-3.3 -9.4,-9.5 -9.4,-16.2 v -49.5 c 0,-6.7 3.6,-12.9 9.4,-16.2 z"
           id="path18957" />
        <path
           style="fill:#2f2c30"
           inkscape:connector-curvature="0"
           d="m 257.4,237.3 c -3.6,0 -7.2,-1 -10.4,-2.8 l -42.9,-24.7 c -6.4,-3.7 -10.4,-10.6 -10.4,-18 v -49.5 c 0,-7.4 4,-14.3 10.4,-18 L 247,99.5 c 3.2,-1.8 6.8,-2.8 10.4,-2.8 3.6,0 7.2,1 10.4,2.8 l 42.9,24.7 c 6.4,3.7 10.4,10.6 10.4,18 v 49.5 c 0,7.4 -4,14.3 -10.4,18 l -42.9,24.7 c -3.2,1.9 -6.8,2.9 -10.4,2.9 z m 0,-136.4 c -2.9,0 -5.8,0.8 -8.3,2.2 l -42.9,24.7 c -5.1,3 -8.3,8.5 -8.3,14.4 v 49.5 c 0,5.9 3.2,11.5 8.3,14.4 l 42.9,24.7 c 2.5,1.5 5.4,2.2 8.3,2.2 2.9,0 5.8,-0.8 8.3,-2.2 l 42.9,-24.7 c 5.1,-3 8.3,-8.5 8.3,-14.4 v -49.5 c 0,-5.9 -3.2,-11.5 -8.3,-14.4 l -42.9,-24.7 c -2.5,-1.4 -5.4,-2.2 -8.3,-2.2 z"
           id="path18959" />
      </g>
      <g
         id="g18971">
        <g
           id="g18965">
          <path
             style="fill:#f7e442"
             inkscape:connector-curvature="0"
             d="m 312.39999,167 a 55,55 0 0 1 -55,55 55,55 0 0 1 -55,-55 55,55 0 0 1 55,-55 55,55 0 0 1 55,55 z"
             id="path18963" />
        </g>
        <g
           id="g18969">
          <path
             style="fill:#2f2c30"
             inkscape:connector-curvature="0"
             d="m 257.4,224 c -31.4,0 -57,-25.6 -57,-57 0,-31.4 25.6,-57 57,-57 31.4,0 57,25.6 57,57 0,31.4 -25.6,57 -57,57 z m 0,-109.9 c -29.2,0 -52.9,23.7 -52.9,52.9 0,29.2 23.7,52.9 52.9,52.9 29.2,0 52.9,-23.7 52.9,-52.9 0,-29.2 -23.7,-52.9 -52.9,-52.9 z"
             id="path18967" />
        </g>
      </g>
      <g
         id="g18981">
        <g
           id="g18975">
          <path
             style="fill:#f7e442"
             inkscape:connector-curvature="0"
             d="m 182.59999,167 a 17.200001,17.200001 0 0 1 -17.2,17.2 17.200001,17.200001 0 0 1 -17.2,-17.2 17.200001,17.200001 0 0 1 17.2,-17.2 17.200001,17.200001 0 0 1 17.2,17.2 z"
             id="path18973" />
        </g>
        <g
           id="g18979">
          <path
             style="fill:#2f2c30"
             inkscape:connector-curvature="0"
             d="m 165.4,186.3 c -10.6,0 -19.3,-8.7 -19.3,-19.3 0,-10.6 8.7,-19.3 19.3,-19.3 10.6,0 19.3,8.7 19.3,19.3 0,10.6 -8.7,19.3 -19.3,19.3 z m 0,-34.4 c -8.4,0 -15.2,6.8 -15.2,15.2 0,8.4 6.8,15.2 15.2,15.2 8.4,0 15.2,-6.8 15.2,-15.2 0,-8.4 -6.8,-15.2 -15.2,-15.2 z"
             id="path18977" />
        </g>
      </g>
      <g
         id="g18991">
        <g
           id="g18985">
          <path
             style="fill:#f7e442"
             inkscape:connector-curvature="0"
             d="M 138.9,167 A 13.3,13.3 0 0 1 125.6,180.3 13.3,13.3 0 0 1 112.3,167 13.3,13.3 0 0 1 125.6,153.7 13.3,13.3 0 0 1 138.9,167 Z"
             id="path18983" />
        </g>
        <g
           id="g18989">
          <path
             style="fill:#2f2c30"
             inkscape:connector-curvature="0"
             d="m 125.6,182.4 c -8.5,0 -15.3,-6.9 -15.3,-15.3 0,-8.5 6.9,-15.3 15.3,-15.3 8.4,0 15.3,6.9 15.3,15.3 0,8.4 -6.9,15.3 -15.3,15.3 z m 0,-26.6 c -6.2,0 -11.2,5 -11.2,11.2 0,6.2 5,11.2 11.2,11.2 6.2,0 11.2,-5 11.2,-11.2 0,-6.2 -5,-11.2 -11.2,-11.2 z"
             id="path18987" />
        </g>
      </g>
      <g
         id="g19001">
        <g
           id="g18995">
          <path
             style="fill:#f7e442"
             inkscape:connector-curvature="0"
             d="m 366.59999,167 a 17.200001,17.200001 0 0 1 -17.2,17.2 17.200001,17.200001 0 0 1 -17.2,-17.2 17.200001,17.200001 0 0 1 17.2,-17.2 17.200001,17.200001 0 0 1 17.2,17.2 z"
             id="path18993" />
        </g>
        <g
           id="g18999">
          <path
             style="fill:#2f2c30"
             inkscape:connector-curvature="0"
             d="m 349.4,186.3 c -10.6,0 -19.3,-8.7 -19.3,-19.3 0,-10.6 8.7,-19.3 19.3,-19.3 10.6,0 19.3,8.7 19.3,19.3 0,10.6 -8.7,19.3 -19.3,19.3 z m 0,-34.4 c -8.4,0 -15.2,6.8 -15.2,15.2 0,8.4 6.8,15.2 15.2,15.2 8.4,0 15.2,-6.8 15.2,-15.2 0,-8.4 -6.8,-15.2 -15.2,-15.2 z"
             id="path18997" />
        </g>
      </g>
      <g
         id="g19011">
        <g
           id="g19005">
          <path
             style="fill:#f7e442"
             inkscape:connector-curvature="0"
             d="m 402.50001,167 a 13.3,13.3 0 0 1 -13.3,13.3 13.3,13.3 0 0 1 -13.3,-13.3 13.3,13.3 0 0 1 13.3,-13.3 13.3,13.3 0 0 1 13.3,13.3 z"
             id="path19003" />
        </g>
        <g
           id="g19009">
          <path
             style="fill:#2f2c30"
             inkscape:connector-curvature="0"
             d="m 389.2,182.4 c -8.5,0 -15.3,-6.9 -15.3,-15.3 0,-8.5 6.9,-15.3 15.3,-15.3 8.5,0 15.3,6.9 15.3,15.3 0,8.4 -6.8,15.3 -15.3,15.3 z m 0,-26.6 c -6.2,0 -11.2,5 -11.2,11.2 0,6.2 5,11.2 11.2,11.2 6.2,0 11.2,-5 11.2,-11.2 0,-6.2 -5,-11.2 -11.2,-11.2 z"
             id="path19007" />
        </g>
      </g>
      <g
         id="g19021">
        <g
           id="g19015">
          <path
             style="fill:#eb953f"
             inkscape:connector-curvature="0"
             d="m 257.39999,133.8 9.9,20.09999 22.20001,3.20002 -16,15.69999 3.79999,22.09999 -19.9,-10.5 -19.89999,10.5 3.8,-22.09999 -16,-15.69999 22.2,-3.20002 z"
             id="path19013" />
        </g>
        <g
           id="g19019">
          <path
             style="fill:#2f2c30"
             inkscape:connector-curvature="0"
             d="m 280,198.7 -22.6,-11.9 -22.6,11.9 4.3,-25.2 -18.3,-17.8 25.3,-3.7 11.3,-22.9 11.3,22.9 25.3,3.7 -18.3,17.8 z m -22.6,-16.6 17.1,9 -3.3,-19.1 13.8,-13.5 -19.1,-2.8 -8.6,-17.3 -8.6,17.3 -19.1,2.8 13.8,13.5 -3.3,19.1 z"
             id="path19017" />
        </g>
      </g>
    </g>
  </g>
</svg>
